<svg width="114" height="113" viewBox="0 0 114 113" fill="none" xmlns="http://www.w3.org/2000/svg">
<g filter="url(#filter0_d_38_14)">
<path d="M57 10C35.4947 10 18 27.2705 18 48.5C18 69.7295 35.4947 87 57 87C78.5052 87 96 69.7295 96 48.5C96 27.2705 78.5052 10 57 10Z" fill="url(#paint0_linear_38_14)"/>
<path d="M93.5625 48.5C93.5625 68.4029 77.1614 84.5938 57 84.5938C36.8386 84.5938 20.4375 68.4029 20.4375 48.5C20.4375 28.5971 36.8386 12.4062 57 12.4062C77.1614 12.4062 93.5625 28.5971 93.5625 48.5Z" fill="#649EFA"/>
<path d="M57 54.6102C69.7026 54.6102 80.6129 47.4829 89.682 37.4408C85.0182 24.0475 72.1304 14.3954 57 14.3954C41.8696 14.3955 28.9817 24.0475 24.318 37.4408C33.3871 47.4829 44.2974 54.6102 57 54.6102Z" fill="url(#paint1_linear_38_14)"/>
<path d="M57 54.6103C44.2973 54.6103 33.3871 47.4829 24.318 37.4409C23.1101 40.9107 22.4526 44.6307 22.4526 48.5C22.4526 67.3056 37.9501 82.6046 57.0001 82.6046C76.0502 82.6046 91.5476 67.3056 91.5476 48.5C91.5476 44.6307 90.8895 40.9107 89.6821 37.4409C80.613 47.4829 69.7028 54.6103 57.0001 54.6103H57Z" fill="url(#paint2_linear_38_14)"/>
<path fill-rule="evenodd" clip-rule="evenodd" d="M93.5625 48.5C93.5625 68.4029 77.1614 84.5938 57 84.5938C36.8386 84.5938 20.4375 68.4029 20.4375 48.5C20.4375 28.5971 36.8386 12.4062 57 12.4062C77.1614 12.4062 93.5625 28.5971 93.5625 48.5Z" fill="url(#paint3_radial_38_14)"/>
<path fill-rule="evenodd" clip-rule="evenodd" d="M57 10C35.4947 10 18 27.2705 18 48.5C18 69.7295 35.4947 87 57 87C78.5052 87 96 69.7295 96 48.5C96 27.2705 78.5052 10 57 10Z" fill="url(#paint4_radial_38_14)"/>
<path fill-rule="evenodd" clip-rule="evenodd" d="M93.5625 48.5C93.5625 68.4029 77.1614 84.5938 57 84.5938C36.8386 84.5938 20.4375 68.4029 20.4375 48.5C20.4375 28.5971 36.8386 12.4062 57 12.4062C77.1614 12.4062 93.5625 28.5971 93.5625 48.5Z" fill="url(#paint5_radial_38_14)"/>
<path d="M51.0265 50.6079C51.0265 45.7328 50.864 45.6526 46.3302 45.0928V42.3753H63.7372V67.7115C63.7372 72.2674 64.1418 72.6668 68.4334 73.1464V76.2633H46.3302V73.1464C50.6218 72.6668 51.0265 72.2674 51.0265 67.7115V50.6079ZM64.2231 28.7078C64.2231 32.545 61.147 35.6619 57.1787 35.6619C53.3746 35.6619 50.136 32.545 50.136 28.7078C50.136 24.7924 53.3746 21.7552 57.1787 21.7552C61.147 21.7552 64.2231 24.7924 64.2231 28.7078Z" fill="white" stroke="#0064D4" stroke-width="5"/>
</g>
<defs>
<filter id="filter0_d_38_14" x="0" y="0" width="114" height="113" filterUnits="userSpaceOnUse" color-interpolation-filters="sRGB">
<feFlood flood-opacity="0" result="BackgroundImageFix"/>
<feColorMatrix in="SourceAlpha" type="matrix" values="0 0 0 0 0 0 0 0 0 0 0 0 0 0 0 0 0 0 127 0" result="hardAlpha"/>
<feOffset dy="8"/>
<feGaussianBlur stdDeviation="9"/>
<feComposite in2="hardAlpha" operator="out"/>
<feColorMatrix type="matrix" values="0 0 0 0 0 0 0 0 0 0 0 0 0 0 0 0 0 0 0.25 0"/>
<feBlend mode="normal" in2="BackgroundImageFix" result="effect1_dropShadow_38_14"/>
<feBlend mode="normal" in="SourceGraphic" in2="effect1_dropShadow_38_14" result="shape"/>
</filter>
<linearGradient id="paint0_linear_38_14" x1="57" y1="10" x2="57" y2="87" gradientUnits="userSpaceOnUse">
<stop stop-color="#003FC0"/>
<stop offset="1" stop-color="#003FC0" stop-opacity="0"/>
</linearGradient>
<linearGradient id="paint1_linear_38_14" x1="24.3182" y1="34.5036" x2="89.682" y2="34.5036" gradientUnits="userSpaceOnUse">
<stop stop-color="#5E99DD"/>
<stop offset="1" stop-color="#0461C9"/>
</linearGradient>
<linearGradient id="paint2_linear_38_14" x1="22.4526" y1="60.0227" x2="91.5475" y2="60.0227" gradientUnits="userSpaceOnUse">
<stop stop-color="#0048CD"/>
<stop offset="1" stop-color="#002AA0"/>
</linearGradient>
<radialGradient id="paint3_radial_38_14" cx="0" cy="0" r="1" gradientUnits="userSpaceOnUse" gradientTransform="translate(24.7371 17.3679) rotate(-111.848) scale(59.5145 58.6637)">
<stop stop-color="white" stop-opacity="0.79381"/>
<stop offset="0.83784" stop-color="white" stop-opacity="0"/>
<stop offset="1" stop-color="white" stop-opacity="0"/>
</radialGradient>
<radialGradient id="paint4_radial_38_14" cx="0" cy="0" r="1" gradientUnits="userSpaceOnUse" gradientTransform="translate(57 48.5) scale(39 38.5)">
<stop stop-color="white" stop-opacity="0.79381"/>
<stop offset="0.83784" stop-color="white" stop-opacity="0"/>
<stop offset="1" stop-color="white" stop-opacity="0"/>
</radialGradient>
<radialGradient id="paint5_radial_38_14" cx="0" cy="0" r="1" gradientUnits="userSpaceOnUse" gradientTransform="translate(57 48.5) scale(36.5625 36.0938)">
<stop stop-color="#0083FF" stop-opacity="0"/>
<stop offset="1" stop-color="#0054FF" stop-opacity="0.41237"/>
</radialGradient>
</defs>
</svg>
